mtllib materials.mtl
v -0.01803607 0.2815735 0.1288481
v 0.1057317 0.2876654 0.08895665
v -0.02098149 -0.06856889 0.1633489
v 0.1815552 0.2588876 -0.01420754
v 0.2227345 -0.0732286 0.004908741
v 0.1230342 -0.07114732 0.1398986
v 0.1858019 0.2713717 -0.1460208
v 0.2241098 -0.07779348 -0.1403107
v 0.1132624 0.1651935 -0.2548192
v 0.1723024 0.1973053 -0.1699244
v -0.01786155 -0.08608854 -0.3224097
v 0.1212203 -0.08296067 -0.260375
v -0.01063478 0.2416902 -0.2884739
v -0.07539725 0.09710759 -0.2770823
v -0.01362538 0.07682276 -0.2976637
v -0.2166305 0.2743719 -0.1499268
v -0.2416419 -0.07657051 -0.1464009
v -0.1551318 -0.08090025 -0.2630571
v -0.2664489 -0.06792521 0.01387161
v -0.2097607 0.2678788 -0.02447623
v -0.1867856 0.05540198 0.07148445
v -0.2399505 0.05700952 -0.004201114
v -0.1821641 -0.06486887 0.1321855
v -0.1361234 0.2772482 0.08664066
v -0.1777019 0.327686 0.03697407
v -0.1614032 0.3269711 0.06227249
v -0.1978677 0.2546275 -0.02483171
v -0.12668 0.2474229 -0.2369512
v -0.1921198 0.2589008 -0.140338
v -0.009371281 0.2456189 -0.2686496
v 0.1055931 0.253482 -0.2509779
v 0.09504133 0.2709101 -0.2527863
v 0.0101462 0.2632138 -0.2798759
v 0.09734774 0.2692514 -0.2355156
v 0.1559963 0.2525926 -0.02082646
v 0.1630307 0.2585047 -0.1360686
v 0.09290528 0.2664973 0.07345653
v 0.1275076 0.2943286 0.02832711
v -0.02403545 0.2721203 0.1110613
v -0.007819593 0.2273001 -0.2669494
v 0.09132731 0.2478461 -0.2284625
v 0.1595984 0.2503218 -0.1326283
v 0.1596933 0.2404777 -0.01770407
v 0.08629662 0.2601632 0.06541741
v -0.01690269 0.2533899 0.09394401
v -0.1334888 0.25976 0.06777
v -0.0655852 0.2356064 -0.1933572
v -0.1374581 0.2408391 -0.2537805
v 0.001920462 0.2402928 -0.1595453
v 0.08930349 0.2830169 -0.242023
v 0.0848527 0.2926286 -0.2541195
v 0.03459203 0.2894258 -0.2700297
v 0.08174711 0.3001596 -0.2480683
v 0.1507115 0.2884579 -0.001007259
v -0.2582811 0.05101985 -0.009432614
v -0.2682664 0.09675527 -0.04620481
v -0.06556576 0.1882169 0.01250851
v -0.0555805 0.1424814 0.0492807
v -0.2637649 0.121434 -0.1001893
v -0.0610643 0.2128957 -0.04147595
v -0.2459828 0.1184434 -0.156921
v -0.04328227 0.2099051 -0.09820765
v -0.219685 0.0885849 -0.2011986
v -0.01698434 0.1800465 -0.1424853
v -0.1919177 0.03985888 -0.2211581
v 0.01078296 0.1313205 -0.1624448
v -0.1701212 -0.01467848 -0.2114514
v 0.03257936 0.07678312 -0.152738
v -0.1601359 -0.0604139 -0.1746791
v 0.04256469 0.03104764 -0.1159658
v -0.1646374 -0.08509266 -0.1206946
v 0.03806323 0.006368935 -0.06198138
v -0.1824194 -0.08210206 -0.063963
v 0.02028114 0.009359539 -0.005249679
v -0.2087173 -0.05224353 -0.01968533
v -0.006016731 0.03921807 0.03902799
v -0.2364846 -0.003517449 0.0002741814
v -0.03378403 0.08794415 0.0589875
v -0.2895741 -0.06141263 -0.01735061
v -0.2628081 -0.09929377 -0.04416376
v -0.2395701 -0.1165963 -0.08922982
v -0.2260868 -0.1086839 -0.1404737
v -0.2259714 -0.07767683 -0.1841646
v -0.2392539 -0.0318833 -0.2085955
v -0.262376 0.01642644 -0.2072201
v -0.2891422 0.05430746 -0.180407
v -0.3123801 0.07160991 -0.1353408
v -0.3258632 0.0636974 -0.08409685
v -0.3259791 0.03269047 -0.04040611
v -0.3126962 -0.01310301 -0.0159753
v -0.3642564 -0.09915084 -0.03818923
v -0.3371381 -0.1361591 -0.05302078
v -0.3098554 -0.157007 -0.08687305
v -0.2897179 -0.1561085 -0.1306757
v -0.2821227 -0.1337045 -0.1726916
v -0.2891039 -0.09579748 -0.2016626
v -0.3087915 -0.05254543 -0.2098262
v -0.3359095 -0.01553726 -0.1949949
v -0.3631925 0.005310476 -0.1611424
v -0.3833296 0.004411757 -0.1173398
v -0.3909251 -0.01799214 -0.07532388
v -0.3839436 -0.05589885 -0.04635292
v -0.4898755 -0.1219261 -0.09154379
v -0.4673164 -0.1589903 -0.09078729
v -0.4387551 -0.1859846 -0.1091932
v -0.4118436 -0.195676 -0.1418291
v -0.3937944 -0.1854681 -0.1799504
v -0.3894427 -0.1580952 -0.213343
v -0.3999553 -0.1208927 -0.2330585
v -0.4225141 -0.0838291 -0.2338154
v -0.4510757 -0.0568347 -0.215409
v -0.4779867 -0.04714328 -0.1827734
v -0.4960363 -0.05735117 -0.1446514
v -0.5003878 -0.08472365 -0.1112596
v -0.5509905 -0.1514205 -0.1533502
v -0.5350676 -0.1843143 -0.139571
v -0.5078185 -0.2122079 -0.1417751
v -0.4765443 -0.2276267 -0.1593708
v -0.4496258 -0.2264398 -0.1876445
v -0.4342749 -0.2089646 -0.21902
v -0.4346059 -0.1798841 -0.2450901
v -0.4505287 -0.1469905 -0.2588693
v -0.4777777 -0.1190968 -0.2566651
v -0.5090517 -0.1036781 -0.2390693
v -0.5359704 -0.1048648 -0.2107947
v -0.5513211 -0.1223398 -0.1794201
v -0.1732669 -0.04591054 -0.1094942
v -0.1922904 0.009919584 -0.1175398
v -0.07601863 0.07647902 0.0694114
v -0.05699515 0.02064884 0.07745695
v -0.1849108 0.0639677 -0.1413719
v -0.0686391 0.1305271 0.04557925
v -0.1531056 0.1017516 -0.1746048
v -0.03683376 0.1683111 0.01234633
v -0.1053967 0.1131473 -0.2083337
v 0.01087499 0.1797066 -0.02138257
v -0.05456799 0.09510106 -0.233521
v 0.06170374 0.1616604 -0.04656988
v -0.01423877 0.05244851 -0.2434179
v 0.102033 0.1190079 -0.0564667
v 0.004784644 -0.00338167 -0.2353723
v 0.1210564 0.06317776 -0.04842114
v -0.002594948 -0.05742979 -0.2115402
v 0.1136768 0.009129643 -0.024589
v -0.03440022 -0.09521371 -0.1783072
v 0.08187157 -0.02865428 0.008643925
v -0.08210897 -0.1066093 -0.1445783
v 0.03416276 -0.04004991 0.04237282
v -0.1329377 -0.08856308 -0.119391
v -0.016666 -0.02200365 0.0675602
v -0.1476305 -0.129643 -0.1870485
v -0.10065 -0.1354104 -0.2121466
v -0.06094551 -0.114775 -0.2416095
v -0.03915572 -0.07326597 -0.267543
v -0.04111958 -0.02200556 -0.2829983
v -0.06631023 0.02527094 -0.2838337
v -0.1079784 0.05589604 -0.2698256
v -0.154959 0.06166333 -0.2447278
v -0.1946635 0.04102784 -0.2152647
v -0.216453 -0.0004813075 -0.1893313
v -0.2144895 -0.05174154 -0.1738762
v -0.1892986 -0.09901798 -0.1730406
v -0.1888793 -0.1576684 -0.2573976
v -0.1452188 -0.1704884 -0.2733478
v -0.1035045 -0.159003 -0.2946304
v -0.07491249 -0.1262894 -0.3155426
v -0.06710523 -0.08111376 -0.3304816
v -0.08217412 -0.03558028 -0.3354436
v -0.1160815 -0.001890004 -0.3290999
v -0.1597415 0.01093018 -0.3131498
v -0.2014561 -0.0005555153 -0.2918672
v -0.2300476 -0.03326911 -0.2709549
v -0.2378552 -0.07844478 -0.256016
v -0.2227862 -0.123978 -0.2510538
v -0.2714989 -0.1628463 -0.3682703
v -0.235907 -0.1866376 -0.3753715
v -0.1945227 -0.1894723 -0.3881201
v -0.1584343 -0.170591 -0.4030992
v -0.1373127 -0.1350535 -0.4162964
v -0.1368167 -0.09238064 -0.4241748
v -0.1570799 -0.05400825 -0.4246235
v -0.1926712 -0.03021693 -0.4175227
v -0.2340558 -0.02738255 -0.4047739
v -0.2701437 -0.04626358 -0.3897947
v -0.2912659 -0.08180171 -0.3765972
v -0.2917616 -0.1244736 -0.368719
v -0.2938053 -0.1557596 -0.4570238
v -0.2692491 -0.1861131 -0.4559903
v -0.232952 -0.2003487 -0.4582905
v -0.19464 -0.1946521 -0.4633068
v -0.164579 -0.1705498 -0.4696965
v -0.1508234 -0.1344994 -0.4757467
v -0.1570597 -0.09616131 -0.4798369
v -0.1816157 -0.06580794 -0.4808704
v -0.2179129 -0.05157238 -0.4785701
v -0.2562246 -0.05726892 -0.4735537
v -0.2862862 -0.08137167 -0.4671634
v -0.3000415 -0.1174213 -0.4611136
v 0.07305878 0.07120961 -0.1991335
v 0.1117678 0.07451516 -0.1540301
v -0.06039411 0.1244945 -0.009938598
v -0.09910309 0.1211889 -0.05504197
v 0.1414258 0.04837197 -0.1095265
v -0.03073615 0.0983513 0.03456497
v 0.1540858 -0.0002149343 -0.07754737
v -0.01807612 0.04976434 0.06654412
v 0.1463557 -0.05822676 -0.06666154
v -0.02580625 -0.008247495 0.07742995
v 0.1203067 -0.1101193 -0.07978576
v -0.05185521 -0.06013995 0.06430572
v 0.08291864 -0.1419879 -0.1134035
v -0.08924323 -0.09200865 0.03068799
v 0.0442096 -0.1452935 -0.1585069
v -0.1279523 -0.0953142 -0.01441544
v 0.0145517 -0.1191503 -0.2030104
v -0.1576102 -0.06917101 -0.05891901
v 0.001891673 -0.07056338 -0.2349896
v -0.1702703 -0.02058411 -0.0908981
v 0.009621799 -0.01255161 -0.2458754
v -0.1625401 0.03742772 -0.1017839
v 0.03567076 0.03934097 -0.2327512
v -0.1364911 0.08932024 -0.0886597
v 0.07281238 0.00360322 -0.294592
v 0.05388761 -0.04645282 -0.2971588
v 0.05242985 -0.09653473 -0.278185
v 0.06883007 -0.1332235 -0.2427546
v 0.09869409 -0.146688 -0.2003612
v 0.1340191 -0.1333207 -0.1623639
v 0.1653404 -0.09670323 -0.1389441
v 0.1842654 -0.04664731 -0.1363775
v 0.1857229 0.003434718 -0.1553513
v 0.1693226 0.04012328 -0.1907818
v 0.139459 0.05358797 -0.2331751
v 0.1041337 0.04022062 -0.2711722
v 0.1347704 -0.01671553 -0.351021
v 0.1098426 -0.05738109 -0.3580853
v 0.09853256 -0.1022922 -0.344668
v 0.1038702 -0.1394157 -0.3143635
v 0.1244263 -0.1588038 -0.2752929
v 0.1546921 -0.1552613 -0.2379242
v 0.1865584 -0.129738 -0.2122709
v 0.211486 -0.08907276 -0.2052062
v 0.2227961 -0.04416144 -0.2186239
v 0.2174581 -0.007038295 -0.2489284
v 0.1969023 0.01234996 -0.287999
v 0.1666363 0.00880754 -0.3253675
v 0.2589384 -0.03939801 -0.4077079
v 0.2300276 -0.0673368 -0.4240429
v 0.2083557 -0.1048399 -0.4213845
v 0.1997283 -0.141858 -0.4004446
v 0.2064585 -0.1684723 -0.3668352
v 0.2267426 -0.1775516 -0.3295605
v 0.2551451 -0.1666626 -0.2986096
v 0.2840557 -0.1387244 -0.2822745
v 0.3057277 -0.101221 -0.2849334
v 0.3143547 -0.06420314 -0.3058729
v 0.3076244 -0.03758818 -0.3394828
v 0.2873408 -0.02850938 -0.3767567
v 0.3322168 -0.08855516 -0.4329828
v 0.3034407 -0.102554 -0.4553742
v 0.2745737 -0.1281999 -0.4612402
v 0.2533501 -0.1586198 -0.4490089
v 0.2454577 -0.1856639 -0.4219581
v 0.2530107 -0.2020852 -0.3873352
v 0.273986 -0.2034836 -0.3544184
v 0.3027619 -0.1894851 -0.3320271
v 0.3316289 -0.1638391 -0.3261611
v 0.3528523 -0.1334192 -0.3383923
v 0.3607445 -0.1063743 -0.3654435
v 0.3531918 -0.08995348 -0.4000657
v 0.1627275 -0.03360903 -0.1080803
v 0.1668478 0.01428103 -0.09072745
v -0.01613086 0.05296385 -0.1540381
v -0.02025104 0.005073845 -0.1713909
v 0.1610382 0.04837501 -0.05310559
v -0.02194035 0.08705783 -0.1164163
v 0.1468558 0.05953741 -0.005295455
v -0.03612286 0.09822029 -0.06860614
v 0.1281005 0.04477739 0.03989226
v -0.05487818 0.08346027 -0.02341837
v 0.1097978 0.008049786 0.07034957
v -0.07318085 0.04673266 0.007038891
v 0.09685194 -0.04080421 0.07791543
v -0.08612669 -0.002121329 0.01460481
v 0.09273177 -0.08869427 0.06056261
v -0.09024686 -0.0500114 -0.002748013
v 0.09854126 -0.1227882 0.02294081
v -0.08443737 -0.08410537 -0.04036987
v 0.1127238 -0.1339507 -0.02486932
v -0.07025486 -0.09526777 -0.08818001
v 0.1314791 -0.1191906 -0.07005703
v -0.05149955 -0.08050776 -0.1333677
v 0.1497818 -0.08246303 -0.1005144
v -0.03319687 -0.04378015 -0.163825
v 0.2013006 -0.1194578 -0.07306463
v 0.1827894 -0.1454642 -0.03995329
v 0.1653296 -0.149555 0.002399683
v 0.1535997 -0.1306341 0.04264605
v 0.1507431 -0.09377128 0.07000178
v 0.1575243 -0.04884404 0.07713681
v 0.1721269 -0.007890344 0.06213939
v 0.1906384 0.01811594 0.02902806
v 0.208098 0.02220672 -0.01332504
v 0.2198278 0.003285706 -0.05357134
v 0.2226848 -0.03357691 -0.08092701
v 0.2159032 -0.0785042 -0.08806199
v 0.2691323 -0.137194 -0.04930961
v 0.2500914 -0.165758 -0.02617967
v 0.2294298 -0.1761308 0.008155882
v 0.212683 -0.165533 0.04449713
v 0.2043396 -0.1368045 0.07310647
v 0.206634 -0.09764272 0.08631772
v 0.2189522 -0.0585413 0.08059138
v 0.2379928 -0.02997732 0.05746168
v 0.2586548 -0.01960468 0.02312601
v 0.2754012 -0.03020263 -0.01321524
v 0.2837449 -0.05893099 -0.04182452
v 0.2814501 -0.09809268 -0.05503583
v 0.3791588 -0.1291509 -0.005273283
v 0.3638288 -0.1615237 0.004967988
v 0.3425468 -0.1811584 0.02840793
v 0.3210142 -0.182794 0.05876547
v 0.3050024 -0.1659925 0.08790648
v 0.2988005 -0.135255 0.108023
v 0.3040711 -0.09881872 0.1137239
v 0.319401 -0.06644619 0.1034833
v 0.3406833 -0.04681164 0.0800429
v 0.3622155 -0.04517597 0.04968566
v 0.3782275 -0.06197768 0.02054393
v 0.3844293 -0.09271455 0.0004280806
v 0.4350362 -0.1304764 0.05026895
v 0.4247715 -0.1623461 0.04849577
v 0.4045156 -0.18695 0.05891389
v 0.3796958 -0.1976957 0.07873052
v 0.3569633 -0.1917038 0.102637
v 0.3424085 -0.1705796 0.1242272
v 0.3399324 -0.1399835 0.137716
v 0.3501969 -0.1081141 0.1394892
v 0.3704527 -0.08350998 0.1290712
v 0.3952723 -0.0727644 0.1092544
v 0.418005 -0.07875633 0.08534724
v 0.4325595 -0.09988016 0.06375766
v 0.5339513 -0.167609 0.1473929
v 0.5226665 -0.1924872 0.1602119
v 0.5051025 -0.2054989 0.1810157
v 0.485965 -0.203158 0.2042293
v 0.470383 -0.1860913 0.2236333
v 0.4625304 -0.1588718 0.2340285
v 0.4645129 -0.1287935 0.2326291
v 0.4757976 -0.1039154 0.2198104
v 0.4933614 -0.0909037 0.1990067
v 0.5124988 -0.09324461 0.175793
v 0.528081 -0.1103116 0.1563882
v 0.5359332 -0.1375304 0.1459934
v 0.6213458 -0.1598194 0.2967872
v 0.6189621 -0.1816615 0.2957045
v 0.6080368 -0.1999316 0.3012516
v 0.5914975 -0.2097344 0.3119417
v 0.5737761 -0.2084432 0.3249111
v 0.55962 -0.1964039 0.3366843
v 0.5528238 -0.1768427 0.3441069
v 0.5552073 -0.1550007 0.3451896
v 0.5661324 -0.1367307 0.3396425
v 0.5826717 -0.1269278 0.3289524
v 0.6003936 -0.1282189 0.3159825
v 0.6145492 -0.140258 0.3042095
v 0.6633866 -0.1817854 0.4423494
v 0.6571608 -0.1673368 0.4454588
v 0.6626211 -0.1977662 0.4434462
v 0.6550699 -0.2109976 0.448455
v 0.6427563 -0.2179344 0.4560336
v 0.62898 -0.2167174 0.4641518
v 0.6174312 -0.2076731 0.4706342
v 0.6112061 -0.1932246 0.4737435
v 0.6119714 -0.1772437 0.4726469
v 0.6195224 -0.1640124 0.467638
v 0.6318358 -0.1570757 0.4600593
v 0.6456128 -0.1582926 0.4519408
v -0.137909 -0.1017783 0.1553991
v -0.1007168 -0.135258 0.1450359
v -0.083049 -0.05946231 -0.03642654
v -0.1202412 -0.02598256 -0.02606338
v -0.05113369 -0.1476255 0.1446977
v -0.03346592 -0.07182974 -0.0367648
v -0.002445459 -0.1355667 0.154475
v 0.01522231 -0.059771 -0.02698749
v 0.0323019 -0.1023129 0.171748
v 0.04996967 -0.02651721 -0.009714484
v 0.04379791 -0.05677444 0.1918884
v 0.03939259 -0.010575 0.2028415
v 0.07189608 0.01959944 0.003767788
v -0.008230031 0.02232659 0.2198629
v 0.07922977 0.112531 0.01255143
v -0.03287727 0.2144971 0.06312609
v 0.01670581 0.2021298 0.06278789
v -0.06234479 0.04608876 0.222148
v -0.1272054 0.03900504 0.207602
v -0.08096224 0.1448167 0.08363408
v -0.1412487 -0.01061851 0.1931508
v -0.1433058 0.08940333 0.01201218
v -0.1527447 -0.05615705 0.1730103
v -0.176844 0.03606105 -0.00883007
v -0.1629648 -0.05631685 0.241361
v -0.1438417 -0.01782423 0.2577313
v -0.1064042 0.006186128 0.2694482
v -0.06068355 0.009280682 0.2733726
v -0.01893055 -0.009370029 0.2684531
v 0.007667124 -0.04476804 0.2560071
v 0.01198262 -0.08742899 0.2393702
v -0.007140577 -0.1259217 0.2230001
v -0.04457814 -0.149932 0.211283
v -0.09029883 -0.1530263 0.2073585
v -0.1320518 -0.1343759 0.2122783
v -0.1586493 -0.09897768 0.224724
v -0.1709894 -0.08188152 0.3103688
v -0.1611897 -0.04348159 0.3223211
v -0.1326081 -0.01467609 0.3304922
v -0.09290266 -0.003182948 0.332692
v -0.0527128 -0.0120824 0.3283319
v -0.02280718 -0.03898954 0.3185794
v -0.011199 -0.07669461 0.3060483
v -0.02099848 -0.1150943 0.2940958
v -0.04958034 -0.1438999 0.2859251
v -0.08928573 -0.1553926 0.2837252
v -0.1294756 -0.1464934 0.2880854
v -0.1593811 -0.1195863 0.2978376
v -0.1609713 -0.1488343 0.4079736
v -0.1646685 -0.1130312 0.4175842
v -0.1495081 -0.07959789 0.4239289
v -0.1195524 -0.05749208 0.4253066
v -0.08282858 -0.05263782 0.4213496
v -0.04917562 -0.06633556 0.4131171
v -0.02761215 -0.09491503 0.4028155
v -0.02391458 -0.1307176 0.3932052
v -0.03907537 -0.1641511 0.3868605
v -0.0690307 -0.1862566 0.3854827
v -0.1057553 -0.1911111 0.3894398
v -0.1394074 -0.1774135 0.3976721
v -0.1314105 -0.1712792 0.4774815
v -0.1460893 -0.1418824 0.4841558
v -0.1443839 -0.1084953 0.4867221
v -0.1267522 -0.080064 0.4844916
v -0.09791785 -0.06420684 0.4780635
v -0.06560701 -0.06517261 0.4691591
v -0.03847772 -0.08270293 0.4601652
v -0.02379894 -0.1120993 0.4534909
v -0.02550429 -0.1454865 0.4509247
v -0.043136 -0.1739177 0.453155
v -0.07197106 -0.1897751 0.4595829
v -0.1042811 -0.1888093 0.4684872
v -0.09756655 -0.1860083 0.6161674
v -0.09648746 -0.1576778 0.6265025
v -0.0811733 -0.1320702 0.6310109
v -0.05572832 -0.1160467 0.628484
v -0.02696973 -0.1139013 0.6195995
v -0.002603173 -0.1262084 0.6067377
v 0.01084137 -0.1496708 0.5933453
v 0.009762466 -0.1780011 0.5830104
v -0.005551577 -0.2036086 0.5785019
v -0.03099668 -0.2196321 0.5810288
v -0.05975598 -0.2217776 0.589913
v -0.08412176 -0.2094707 0.6027746
v 0.004879415 -0.2139096 0.7530741
v -0.00634563 -0.196743 0.7610263
v -0.008000553 -0.1751187 0.7647111
v 0.0003576279 -0.1548309 0.7631409
v 0.01648998 -0.1413156 0.7567368
v 0.03607374 -0.138194 0.7472143
v 0.05386108 -0.1463031 0.7371258
v 0.06508613 -0.1634694 0.7291736
v 0.06674099 -0.1850936 0.7254886
v 0.05838281 -0.2053816 0.7270588
v 0.04225004 -0.2188972 0.7334629
v 0.02266675 -0.2220186 0.7429851
v 0.1016297 -0.1917076 0.8696277
v 0.113153 -0.197462 0.860073
v 0.0946973 -0.1793469 0.8771332
v 0.09421271 -0.1636921 0.8805787
v 0.1003057 -0.1489378 0.8790411
v 0.1113442 -0.1390376 0.8729324
v 0.1243702 -0.1366436 0.8638892
v 0.1358933 -0.1423984 0.854335
v 0.142826 -0.1547589 0.8468295
v 0.1433104 -0.1704134 0.8433837
v 0.1372175 -0.1851677 0.8449213
v 0.1261786 -0.1950684 0.8510301
vn 0.3013886 0.09164216 0.9490872
vn 0.7982429 0.1327915 0.5875157
vn 0.994007 0.1091532 0.005982695
vn 0.8133671 0.03907863 -0.5804368
vn 0.4064913 0.03347728 -0.9130411
vn -0.2982119 0.05851367 -0.9527044
vn -0.8012758 0.05111731 -0.5961074
vn -0.9853344 0.06865464 -0.1562133
vn -0.804693 0.1699027 0.5688605
vn -0.1867483 0.09788916 0.9775187
vn -0.007756042 -0.9994786 0.03134427
vn -0.8213744 -0.1302819 0.5553114
vn 0.7441233 0.6680139 -0.006173837
vn 0.4616632 0.8617606 0.2103231
vn -0.03680115 0.9807037 -0.1920048
vn 0.2984439 0.08202714 -0.9508958
vn 0.4776588 0.7296157 -0.4893905
vn -0.4868875 0.8733345 0.01508372
vn 0.6928248 0.240797 0.6797137
vn -0.2579473 0.6676592 -0.6983511
vn 0.148483 0.8516176 -0.5026931
vn 0.2608354 0.111098 0.9589694
vn -0.3500237 0.3804929 0.855984
vn -0.7557978 0.3866915 0.5284311
vn -0.9162802 0.3990114 0.03493452
vn -0.7380242 -0.3705595 -0.5639201
vn -0.1944252 0.8418527 -0.5034708
vn 0.221282 0.7024567 -0.6764532
vn 0.1729001 0.9846326 0.02458276
vn -0.2638902 0.04227956 -0.9636257
vn -0.7842128 0.06088194 -0.6174979
vn 0.1247885 0.9680634 -0.2174425
vn -0.09153584 0.9458578 -0.3114068
vn 0.5167556 0.854212 0.05731753
vn 0.6457045 0.592442 -0.4817449
vn 0.1764429 0.7341139 -0.6557018
vn -0.9871723 0.1472627 0.06168067
vn -0.3372229 0.1686826 0.9261895
vn -0.09885366 0.8921415 -0.4408078
vn -0.2150208 0.6129411 -0.7603087
vn -0.8296695 0.152786 0.5369403
vn 0.004821296 0.9688771 0.2474951
vn 0.8156189 0.1196979 0.5660727
vn -0.4790295 0.6887467 -0.5442047
vn -0.3664411 0.8532546 -0.3710493
vn 0.9911368 0.1254134 0.04381013
vn -0.2584962 0.9624549 0.08282591
vn -0.9483925 -0.3084123 -0.07371196
vn -0.3522997 0.87674 0.3274324
vn -0.6933672 0.5063655 0.5126753
vn -0.1583202 0.9704271 -0.182225
vn -0.3711453 0.05459623 0.9269685
vn 0.3023027 0.04758246 -0.9520236
vn 0.02195086 -0.9992589 0.03161896
vn 0.7558026 0.0722783 -0.6507981
vn 0.01585593 -0.9994413 0.02942476
vn 0.1615363 0.1463494 0.9759549
vn -0.01308163 -0.9994774 0.02955696
vn -0.03235879 -0.9982823 0.04884
vn -0.0323589 -0.9982823 0.04884002
vn -0.7914684 0.2508818 0.5573474
vn -0.9544224 0.2299531 0.1902614
vn -0.8924983 0.1754279 0.415538
vn -0.2982119 0.05851367 -0.9527044
vn -0.008102477 -0.9976204 0.06846752
vn 0.1688736 0.1437259 -0.9751024
vn -0.3877556 0.1482742 -0.9097584
vn 0.8133671 0.03907863 -0.5804368
vn 0.783115 0.09476683 -0.6146139
vn 0.3464916 0.07079456 -0.9353778
vn 0.2406655 0.9694284 0.0478413
vn 0.008272353 0.9961609 -0.08714966
vn 0.04265679 0.9799899 -0.194423
vn 0.03770126 0.9956458 0.08525293
vn 0.003501002 0.9995929 -0.028317
vn -0.1216376 0.971155 -0.2050907
vn -0.009186442 0.9928195 -0.1192685
vn 0.003501002 0.9995929 -0.028317
vn -0.07513595 0.9971034 0.01180655
vn 0.7613641 0.2188992 -0.6102521
vn 0.90934 0.3607121 -0.2073347
vn 0.8073854 0.2934588 -0.51187
vn 0.8702877 0.4911644 -0.03683542
vn -0.4564735 0.08700291 0.885473
vn 0.2963642 0.08061087 -0.9516671
vn 0.9115819 0.4103979 0.02433251
vn -0.4465365 0.08174724 0.8910233
vn 0.1878141 0.6611142 -0.7263979
vn -0.8193308 0.1046118 -0.5636961
vn 0.1024586 0.4926429 -0.8641789
vn 0.7101616 0.5380462 0.4540668
vn -0.7373616 0.2402276 -0.6313388
vn -0.3833038 0.2856449 0.8783423
vn -0.4701322 0.6833444 0.5585842
vn -0.4309891 0.8979422 0.08915387
vn -0.2763627 0.8719372 -0.4041651
vn -0.04768521 0.6122972 -0.7891884
vn 0.1937695 0.1885929 -0.9627493
vn 0.3833039 -0.285645 -0.8783423
vn 0.4701323 -0.6833445 -0.558584
vn 0.430989 -0.8979422 -0.08915382
vn 0.2763627 -0.8719372 0.4041651
vn 0.04768528 -0.6122974 0.7891883
vn -0.1937696 -0.1885926 0.9627493
vn 0.06622649 -0.3456767 0.9360138
vn 0.881307 0.3976591 0.2552752
vn 0.3086455 -0.6935121 0.650983
vn 0.4461466 -0.875421 0.185988
vn 0.4311475 -0.8336563 -0.3451509
vn 0.2615968 -0.5694512 -0.7792899
vn 0.002672881 -0.1741945 -0.9847076
vn -0.2628852 0.2336467 -0.9361094
vn -0.4803596 0.5679829 -0.668319
vn -0.6098328 0.7580851 -0.2311088
vn -0.6116133 0.7375829 0.2861834
vn -0.4689184 0.4889985 0.7355244
vn -0.4151486 -0.003997961 0.909745
vn -0.2067473 -0.1265737 0.9701725
vn -0.1925769 -0.1198985 0.9739294
vn -0.2390266 0.4021794 0.8838089
vn 0.08493721 -0.534973 0.8405889
vn 0.2938656 -0.8318084 0.4708905
vn 0.3708086 -0.9275864 -0.04565698
vn 0.2849227 -0.7820544 -0.5542653
vn 0.07581018 -0.452142 -0.8887185
vn -0.1757539 -0.0561382 -0.9828322
vn -0.4113944 0.3147723 -0.8553789
vn -0.5958512 0.5974802 -0.5366368
vn -0.6889054 0.721477 -0.06986061
vn -0.6469562 0.6226507 0.4401749
vn 0.146527 -0.5004396 0.8532819
vn 0.4413137 -0.7377723 0.5108173
vn 0.6006594 -0.7987512 0.03471448
vn 0.5715715 -0.6698737 -0.4738938
vn 0.3440793 -0.3623248 -0.8662161
vn 0.008084462 0.03232342 -0.9994448
vn -0.3137494 0.3908207 -0.8653442
vn -0.5590805 0.635651 -0.5323315
vn -0.6954865 0.7148608 -0.07261366
vn -0.6878291 0.5928098 0.4188889
vn -0.5966347 0.2361279 0.7669881
vn -0.3903312 -0.003895454 0.9206663
vn -0.3902458 -0.003849281 0.9207026
vn -0.5613783 0.4347695 0.7041518
vn -0.05101362 -0.4035008 0.9135561
vn 0.2721409 -0.7058352 0.6540155
vn 0.4926768 -0.8446991 0.2091727
vn 0.5337732 -0.7824439 -0.3207299
vn 0.3637057 -0.5224341 -0.7712204
vn 0.06405149 -0.1568601 -0.9855416
vn -0.2449257 0.2006668 -0.9485485
vn -0.5077077 0.4882154 -0.7098442
vn -0.6944531 0.651279 -0.3058933
vn -0.7567272 0.6237242 0.1957859
vn -0.1686951 -0.470685 0.8660241
vn 0.08466908 -0.8165121 0.5710862
vn 0.2964335 -0.9478801 0.1168363
vn 0.4103697 -0.8333936 -0.3702053
vn 0.403687 -0.5074604 -0.7612626
vn 0.2830064 -0.05194258 -0.9577105
vn 0.07585698 0.418321 -0.9051261
vn -0.1686595 0.7727879 -0.6118439
vn -0.3854747 0.9089928 -0.1585614
vn -0.5138884 0.792073 0.3294531
vn -0.6041772 0.4106403 0.6828942
vn -0.7369149 0.1420204 0.6608984
vn -0.5193906 0.2809338 0.8070375
vn -0.4678864 0.7124138 0.5230192
vn -0.3529909 -0.1961759 0.9148293
vn -0.109794 -0.6366282 0.763315
vn 0.1384364 -0.9124304 0.3851056
vn 0.3151002 -0.9434056 -0.1034304
vn 0.378879 -0.7393115 -0.5566591
vn 0.3295362 -0.3677197 -0.8695908
vn 0.1816423 0.09055989 -0.9791859
vn -0.04120859 0.5327518 -0.8452678
vn -0.2871765 0.8274656 -0.4825251
vn -0.4817764 0.8762699 0.00653209
vn -0.4893892 -0.2810173 0.8255468
vn -0.1153631 -0.6400204 0.7596482
vn 0.280977 -0.8318033 0.4787017
vn 0.5851182 -0.8086892 0.0604874
vn 0.7128373 -0.5850802 -0.3867097
vn 0.6293672 -0.2175208 -0.746044
vn 0.3609742 0.2011105 -0.9106328
vn -0.01075865 0.5555319 -0.8314257
vn -0.3847861 0.7488074 -0.5396547
vn -0.6702413 0.7321656 -0.1212867
vn -0.8784596 0.4192555 0.2292023
vn -0.5989658 -0.5382908 -0.59286
vn -0.8309617 0.3660882 0.4189061
vn -0.6650548 0.7416297 0.08767948
vn -0.7006801 -0.04079232 0.7123085
vn -0.4018504 -0.4553445 0.794467
vn -0.01400961 -0.7642359 0.6447847
vn 0.3553329 -0.8848981 0.3011546
vn 0.5982925 -0.7878487 -0.1460845
vn 0.6459696 -0.5054659 -0.5720382
vn 0.4990594 -0.118046 -0.85849
vn 0.2095806 0.2787983 -0.937202
vn -0.1542344 0.590866 -0.7918896
vn -0.5088952 0.7315041 -0.4537924
vn -0.6914266 -0.4276482 0.5822769
vn -0.8568481 0.05783141 0.5123155
vn -0.7926778 0.5278151 0.3050794
vn -0.5161101 0.8563712 0.01609761
vn -0.1012512 0.9554632 -0.2771975
vn 0.3407379 0.7985398 -0.4962178
vn 0.6914266 0.4276481 -0.5822769
vn 0.8568482 -0.05783164 -0.5123154
vn 0.7926778 -0.5278152 -0.3050794
vn 0.5161102 -0.8563712 -0.01609763
vn 0.1012513 -0.9554632 0.2771975
vn -0.3407381 -0.7985396 0.4962179
vn -0.04156688 -0.8500071 0.525129
vn 0.5055293 0.2893888 0.8128312
vn 0.3974299 -0.878423 0.2653726
vn 0.7213581 -0.686649 -0.09031142
vn 0.8331438 -0.3143878 -0.4550077
vn 0.6875933 0.1313798 -0.7141114
vn 0.3455991 0.5096044 -0.7879496
vn -0.07617369 0.7313598 -0.6777245
vn -0.4832116 0.7655081 -0.4248579
vn -0.796456 0.5992582 -0.08091908
vn -0.9283174 0.2486352 0.2764194
vn -0.8167538 -0.2003232 0.5410951
vn -0.5977418 -0.6680247 0.4432247
vn -0.3815031 -0.7598438 0.5263961
vn -0.3734066 -0.7547575 0.5393595
vn -0.6218368 -0.3186977 0.7153677
vn 0.08464858 -0.9247821 0.3709621
vn 0.4951327 -0.8667293 0.06020178
vn 0.7428389 -0.588891 -0.3184307
vn 0.7417383 -0.1673998 -0.6494628
vn 0.5062146 0.2551721 -0.8237926
vn 0.1401512 0.5631812 -0.8143615
vn -0.2608717 0.7119883 -0.6519346
vn -0.6304281 0.6809599 -0.3726318
vn -0.8910578 0.4533011 -0.02312097
vn -0.9486818 0.05742063 0.3109759
vn 0.1183545 -0.8962365 0.4274955
vn 0.5681804 -0.7961667 0.2080627
vn 0.8597474 -0.5037714 -0.08395988
vn 0.914542 -0.08424456 -0.395621
vn 0.6889275 0.3559275 -0.6314228
vn 0.2619822 0.6728842 -0.6918037
vn -0.2088299 0.7924914 -0.5730163
vn -0.6172596 0.7131057 -0.3323718
vn -0.8929762 0.4489915 -0.03163043
vn -0.9644902 0.04168922 0.2608083
vn -0.8213003 -0.4310181 0.3737506
vn -0.5795588 -0.6705004 0.4631857
vn -0.5795164 -0.6704742 0.4632765
vn -0.8629666 -0.2369618 0.4462486
vn -0.1097206 -0.8995974 0.4227127
vn 0.3709691 -0.8961565 0.2434869
vn 0.7410878 -0.6704648 -0.03558271
vn 0.8912514 -0.2736237 -0.3616646
vn 0.7515424 0.1795403 -0.6347829
vn 0.3904518 0.5341544 -0.7498177
vn -0.04277128 0.7182999 -0.6944178
vn -0.4597314 0.7284275 -0.5079772
vn -0.8007982 0.5532865 -0.2293395
vn -0.9769127 0.1965349 0.08376011
vn -0.16731 -0.9399464 0.2975035
vn 0.2828 -0.9584633 0.03704942
vn 0.6446249 -0.722732 -0.2492339
vn 0.8220555 -0.3017493 -0.4828793
vn 0.7762831 0.1914522 -0.6006086
vn 0.5229114 0.6336365 -0.5701478
vn 0.1220262 0.909626 -0.3971023
vn -0.3239461 0.9372186 -0.1291528
vn -0.6919791 0.7047707 0.1564086
vn -0.8809375 0.2787189 0.3824463
vn -0.8829761 -0.2488381 0.3980364
vn -0.8703586 -0.4574625 0.1822206
vn -0.7862021 -0.4097442 0.4625972
vn -0.8583206 0.1027825 0.5027146
vn -0.4602753 -0.8021273 0.3804455
vn -0.01526721 -0.9854035 0.1695491
vn 0.4216529 -0.8991156 -0.117475
vn 0.7179519 -0.5733172 -0.3947821
vn 0.8034617 -0.1171078 -0.5837253
vn 0.6798384 0.3514726 -0.6436512
vn 0.3785943 0.7344702 -0.5632229
vn -0.04508648 0.9341419 -0.3540431
vn -0.4843492 0.8722742 -0.06740855
vn -0.8040521 0.5560553 0.2104828
vn -0.5146912 -0.8318994 0.2074528
vn -0.0175153 -0.9865521 0.1625068
vn 0.4820276 -0.8741356 0.05947041
vn 0.8439749 -0.5306522 -0.07819846
vn 0.973698 -0.05226114 -0.2217686
vn 0.8352714 0.4371783 -0.3334621
vn 0.4637517 0.8045136 -0.3710692
vn -0.03301084 0.9475735 -0.3178284
vn -0.5171024 0.8333156 -0.1954242
vn -0.8660383 0.497926 -0.04525425
vn -0.9984913 0.001465023 -0.05489411
vn -0.1108138 -0.1232266 -0.9861722
vn -0.9853848 -0.1521025 0.07669464
vn -0.92219 0.3704898 0.1109199
vn -0.7716832 -0.6193765 0.1444923
vn -0.3537877 -0.924743 0.1403028
vn 0.1553939 -0.9855334 0.06765426
vn 0.6170518 -0.7848251 -0.05741826
vn 0.9016155 -0.3790062 -0.2084325
vn 0.9310774 0.1145016 -0.3463881
vn 0.710003 0.5598479 -0.4271608
vn 0.3070627 0.851589 -0.4248635
vn -0.1818602 0.9219393 -0.3419868
vn -0.638419 0.7422667 -0.2036213
vn -0.04286894 0.9269457 -0.3727388
vn 0.2937312 0.9556899 0.01946435
vn 0.5516264 0.7283578 0.4064521
vn 0.6617137 0.3058628 0.6845313
vn 0.5944954 -0.198588 0.7791908
vn 0.3679825 -0.6498271 0.665067
vn 0.04286888 -0.9269457 0.3727387
vn -0.2937314 -0.95569 -0.01946454
vn -0.5516264 -0.7283577 -0.4064521
vn -0.6617137 -0.3058628 -0.6845313
vn -0.5944954 0.1985878 -0.7791908
vn -0.3679823 0.6498274 -0.6650668
vn -0.6114583 0.4682597 -0.6378495
vn -0.7485301 0.2173013 0.6264848
vn -0.763197 -0.01950052 -0.6458715
vn -0.6946527 -0.5129427 -0.5043288
vn -0.4075689 -0.879657 -0.2451349
vn 0.01847136 -0.9981862 0.05730337
vn 0.4398587 -0.8429151 0.309869
vn 0.744051 -0.4887177 0.4555693
vn 0.8801313 -0.02835456 0.4738829
vn 0.8209292 0.4474284 0.3548001
vn 0.5602565 0.8211171 0.1089926
vn 0.1530314 0.967308 -0.2022296
vn -0.1094967 0.7793155 -0.6169913
vn -0.3443811 0.6969082 -0.6290635
vn -0.356169 0.7003167 -0.618628
vn -0.1336499 0.9672013 -0.2160085
vn -0.6301231 0.275461 -0.7259934
vn -0.6985638 -0.2356353 -0.6756366
vn -0.531409 -0.6992804 -0.4781333
vn -0.1692301 -0.9674675 -0.1880634
vn 0.2575798 -0.9612049 0.09868252
vn 0.6178601 -0.7242638 0.30609
vn 0.8483478 -0.3414864 0.4045902
vn 0.9180821 0.1167891 0.378795
vn 0.7964689 0.56474 0.2161159
vn 0.4823527 0.873761 -0.06227181
vn -0.6780792 0.2909738 -0.6749392
vn -0.8150712 -0.1843601 -0.5492452
vn -0.7267653 -0.616793 -0.3022891
vn -0.4159566 -0.9093748 0.004193832
vn 0.04877793 -0.955538 0.2908061
vn 0.4978546 -0.7276495 0.4718765
vn 0.7929354 -0.3261792 0.5146464
vn 0.8957629 0.134455 0.4237105
vn 0.8015047 0.5602324 0.209117
vn 0.5187109 0.8495924 -0.09556042
vn 0.1753961 0.8662513 -0.4678088
vn -0.1353905 0.7813638 -0.6092129
vn -0.1354667 0.7813982 -0.6091517
vn 0.2304985 0.9333559 -0.2751678
vn -0.5189032 0.4448904 -0.7299399
vn -0.7378354 -0.01578747 -0.6747962
vn -0.7363913 -0.4882182 -0.4683704
vn -0.4907907 -0.8552793 -0.1661983
vn -0.05733058 -0.9884709 0.1401383
vn 0.3941956 -0.8480683 0.3541051
vn 0.7265784 -0.5228351 0.4457887
vn 0.9020249 -0.1018293 0.4195023
vn 0.8994181 0.3466565 0.2662258
vn 0.6945841 0.7193617 -0.008461754
vn -0.416042 0.3971412 -0.8180393
vn -0.5713707 -0.09948708 -0.8146399
vn -0.5560108 -0.572126 -0.6029295
vn -0.3779023 -0.8930264 -0.2443231
vn -0.09130199 -0.9817184 0.1670125
vn 0.2275222 -0.8168501 0.5300849
vn 0.4981547 -0.4356134 0.749722
vn 0.649303 0.06292095 0.7579226
vn 0.6398876 0.5390809 0.547664
vn 0.4726066 0.8627988 0.1795031
vn 0.2699591 0.9132161 -0.3052192
vn 0.3187913 0.7637927 -0.5612424
vn 0.1036774 0.9046327 -0.4133894
vn 0.317286 0.9465613 0.05789335
vn -0.214694 0.6489301 -0.7299291
vn -0.4580579 0.2033575 -0.865349
vn -0.5491267 -0.3108517 -0.7757778
vn -0.4609458 -0.7383218 -0.4923515
vn -0.2342468 -0.9661747 -0.1078659
vn 0.06102593 -0.9577777 0.2809591
vn 0.359975 -0.7196507 0.593735
vn 0.5957261 -0.2911827 0.7485476
vn 0.6976507 0.2226111 0.6809757
vn 0.6287901 0.6659403 0.4014305
vn -0.08037033 0.5637716 -0.8220113
vn -0.4525437 0.1999089 -0.869046
vn -0.6917905 -0.2266042 -0.6856213
vn -0.7293683 -0.599847 -0.3289461
vn -0.553273 -0.82702 0.09963454
vn -0.2078599 -0.8472576 0.4888241
vn 0.2073344 -0.644733 0.7357528
vn 0.5697863 -0.2743421 0.7746485
vn 0.7856278 0.1556279 0.5988062
vn 0.8094209 0.5283443 0.2563009
vn 0.723963 0.6481825 -0.2360871
vn 0.6452242 -0.6261544 -0.4377404
vn 0.5763979 0.745061 -0.3356334
vn 0.7039797 0.6887987 0.1731151
vn 0.2145251 0.6801915 -0.7009414
vn -0.1838245 0.4111336 -0.8928483
vn -0.5124559 0.0122987 -0.8586256
vn -0.6793031 -0.4103299 -0.6084216
vn -0.63219 -0.7443499 -0.2151255
vn -0.384814 -0.8994833 0.2069982
vn -0.01784972 -0.8373235 0.5464166
vn 0.3663355 -0.578958 0.7284273
vn 0.678135 -0.1873866 0.710647
vn 0.8409336 0.2398112 0.4850993
vn 0.3336353 0.03644085 -0.9419978
vn 0.3753695 0.5215306 -0.7662269
vn 0.3165238 0.8668767 -0.3851462
vn 0.1728658 0.9799438 0.09913421
vn -0.01711147 0.8304358 0.5568517
vn -0.2025037 0.4584133 0.8653611
vn -0.3336353 -0.03644093 0.9419978
vn -0.3753695 -0.5215309 0.7662269
vn -0.3165238 -0.8668767 0.3851461
vn -0.1728658 -0.9799438 -0.09913418
vn 0.01711142 -0.8304359 -0.5568515
vn 0.2025038 -0.458413 -0.8653613
vn -0.03591212 -0.6272631 -0.7779791
vn -0.9267173 0.195914 -0.3206444
vn -0.230062 -0.8928612 -0.3871307
vn -0.3380082 -0.9337495 0.1177392
vn -0.321128 -0.7258947 0.6082383
vn -0.179419 -0.3214632 0.9297692
vn 0.03186779 0.1447129 0.9889605
vn 0.2447959 0.543726 0.8027685
vn 0.4160755 0.7992147 0.4337478
vn 0.5154232 0.8556527 -0.04687663
vn 0.5127759 0.6740733 -0.5316825
vn 0.3956011 0.2826057 -0.8738616
vn 0.4002948 -0.2429155 -0.8836043
vn 0.2076866 -0.4008197 -0.892306
vn 0.1927563 -0.3972953 -0.8972189
vn 0.1761102 0.1284114 -0.9759591
vn -0.03001613 -0.7778559 -0.6277256
vn -0.1960439 -0.9650288 -0.1740292
vn -0.2537533 -0.9017361 0.3499734
vn -0.1795384 -0.5951803 0.7832794
vn -0.007952015 -0.1556715 0.9877771
vn 0.1944492 0.2754298 0.9414501
vn 0.3811556 0.6115078 0.6933821
vn 0.525311 0.7986201 0.293691
vn 0.5962186 0.7793677 -0.1926379
vn 0.5598656 0.5213228 -0.6440289
vn -0.09553648 -0.7561911 -0.6473391
vn -0.3544213 -0.9054464 -0.2335644
vn -0.4987094 -0.8312871 0.2454605
vn -0.4788196 -0.5468012 0.6868336
vn -0.2854796 -0.1081419 0.9522642
vn 0.001398748 0.3434321 0.9391767
vn 0.2750731 0.6753845 0.6842447
vn 0.4840874 0.8291312 0.2796441
vn 0.6035968 0.7747327 -0.1883086
vn 0.6043671 0.5044574 -0.6166549
vn 0.5528966 0.04864777 -0.8318288
vn 0.3755077 -0.2490313 -0.8927361
vn 0.3754168 -0.2490087 -0.8927805
vn 0.4944189 0.2517 -0.8319839
vn 0.08781802 -0.6615793 -0.7447154
vn -0.1923668 -0.9013382 -0.3880526
vn -0.3882572 -0.9172841 0.0885785
vn -0.4295715 -0.6967898 0.5744147
vn -0.2866168 -0.2911205 0.9127431
vn -0.03115519 0.1544349 0.9875118
vn 0.2311794 0.5145263 0.8257232
vn 0.4535418 0.7401198 0.4965106
vn 0.6134825 0.7879331 0.05291982
vn 0.6719406 0.6113909 -0.4179676
vn 0.2134683 -0.6967959 -0.6847678
vn 0.008343353 -0.9586167 -0.2845781
vn -0.1796347 -0.9635581 0.1982103
vn -0.3002053 -0.7154492 0.6308799
vn -0.3282609 -0.2846139 0.9006886
vn -0.2616653 0.2200565 0.9397376
vn -0.1144002 0.6701183 0.7333854
vn 0.08090836 0.9396122 0.3325399
vn 0.2733192 0.9499838 -0.1510882
vn 0.4085419 0.7008986 -0.5846663
vn 0.5401317 0.2404265 -0.8065067
vn 0.7050552 0.008972059 -0.7090958
vn 0.4702167 0.06965096 -0.8797984
vn 0.3700564 0.5598533 -0.7413656
vn 0.3620822 -0.4326604 -0.8256524
vn 0.1767173 -0.8275912 -0.5327888
vn -0.03077546 -0.9966687 -0.07552826
vn -0.1957582 -0.8922603 0.4068788
vn -0.2779822 -0.564667 0.7770954
vn -0.2703414 -0.1105376 0.9563981
vn -0.1782411 0.3725127 0.9107496
vn -0.01304456 0.7723281 0.6350902
vn 0.1900935 0.9638383 0.1867628
vn 0.3706849 0.878086 -0.3025851
vn 0.5090285 -0.4693137 -0.7215503
vn 0.1827085 -0.8290133 -0.5285403
vn -0.1833587 -0.9660319 -0.1821046
vn -0.4824143 -0.8470074 0.2232822
vn -0.6305624 -0.5100799 0.584987
vn -0.5879392 -0.04135309 0.8078476
vn -0.3706653 0.4350996 0.8205461
vn -0.04623808 0.7860431 0.6164402
vn 0.2973589 0.9185677 0.2604055
vn 0.577076 0.8035016 -0.1461797
vn 0.8173429 0.4217804 -0.3924944
vn 0.7217281 0.3273021 -0.6099032
vn 0.7741795 0.3067558 -0.553667
vn 0.5679721 0.7462189 -0.3472249
vn 0.6908007 -0.1835851 -0.6993505
vn 0.4439259 -0.6337186 -0.6335068
vn 0.09888016 -0.9214122 -0.3757958
vn -0.2482675 -0.9686683 0.006709581
vn -0.4952753 -0.7639652 0.4135936
vn -0.5714749 -0.3693241 0.7328141
vn -0.4693034 0.1023518 0.8770854
vn -0.2295855 0.5336601 0.8139396
vn 0.09128699 0.8230265 0.5606194
vn 0.4214921 0.8892066 0.1779211
vn 0.7119293 -0.191713 -0.6755761
vn 0.5272245 -0.6604394 -0.5346535
vn 0.2248577 -0.9464679 -0.2315982
vn -0.1063992 -0.9836405 0.1453638
vn -0.3826343 -0.7760433 0.5013462
vn -0.5400273 -0.3757325 0.7531241
vn -0.5374135 0.1266996 0.8337472
vn -0.3670858 0.6023489 0.7088188
vn -0.07088954 0.911382 0.4054104
vn 0.2677192 0.9634079 0.01310629
vn 0.489439 0.7650194 -0.4185628
vn 0.8621967 -0.08008622 -0.5002031
vn 0.6034655 -0.0766934 -0.7936925
vn 0.6530485 0.4272027 -0.6253206
vn 0.4618797 -0.5627515 -0.6855496
vn 0.1851722 -0.8958384 -0.4039618
vn -0.1515318 -0.9881292 -0.02527831
vn -0.4571108 -0.8170006 0.3515106
vn -0.6495708 -0.4275067 0.6287255
vn -0.6767629 0.07866118 0.7319869
vn -0.5312228 0.5658641 0.6305556
vn -0.2538102 0.9018066 0.3497506
vn 0.07970288 0.9962128 -0.03475276
vn 0.3815384 0.8241842 -0.4185081
vn 0.7002046 -0.551335 -0.4535896
vn 0.3545898 -0.8975629 -0.262006
vn -0.08934472 -0.9956416 0.02674664
vn -0.4892813 -0.8111039 0.3204907
vn -0.7315305 -0.4170345 0.5393937
vn -0.7642248 0.08014275 0.6399515
vn -0.5728796 0.5655466 0.5932675
vn -0.1974391 0.8973966 0.3945851
vn 0.241365 0.9650949 0.1016597
vn 0.6084716 0.7706854 -0.1892254
vn 0.8579261 0.379683 -0.3461266
vn 0.8991655 0.3886966 -0.2010384
vn 0.8107278 0.4317172 -0.3953996
vn 0.5070094 0.828533 -0.2376438
vn 0.8626502 -0.06930942 -0.50103
vn 0.69841 -0.5548801 -0.4520309
vn 0.3586901 -0.8948609 -0.2656417
vn -0.06829716 -0.997647 0.006002668
vn -0.466768 -0.834677 0.2923046
vn -0.7251543 -0.4497816 0.5213902
vn -0.7715609 0.05276688 0.6339634
vn -0.5960268 0.5375215 0.596509
vn -0.2504822 0.8748168 0.414674
vn 0.1708593 0.9758195 0.1363218
vn 0.9524599 -0.08951085 -0.2912182
vn 0.7796928 -0.5545362 -0.2908075
vn 0.4040028 -0.8938227 -0.1945837
vn -0.08979377 -0.9956816 -0.0235664
vn -0.5526431 -0.8159223 0.1698716
vn -0.8466503 -0.4187524 0.3283744
vn -0.9055685 0.07814913 0.4169393
vn -0.7180911 0.5563492 0.4181163
vn -0.3184014 0.8907828 0.3242325
vn 0.1833012 0.9709501 0.153807
vn 0.6276704 0.7774346 -0.04031271
vn 0.5096549 0.03459207 0.8596833
vn -0.8451394 -0.4589816 -0.273999
vn -0.4684105 -0.7981064 -0.3789697
vn 0.03382874 -0.9233793 -0.3823958
vn 0.5270035 -0.8012334 -0.2833593
vn 0.8789682 -0.4643976 -0.1083968
vn 0.9841722 0.05381511 0.1688464
vn 0.6037292 0.6057344 0.5182636
vn 0.1637905 0.6360392 0.7540737
vn -0.2166632 0.7809771 0.5857746
vn -0.9627382 0.2319658 0.1390213
vn -0.9665748 0.153029 0.2057069
vn -0.995414 0.003126696 -0.0956106
vn -0.9434731 0.3002578 -0.1403706
vn 0.08948043 0.3838766 -0.9190388
vn -0.9615692 0.2744463 -0.007986638
vn -0.2058775 0.8340499 0.5118354
vn 0.3580371 0.7637161 0.5371661
vn 0.6028017 0.6010095 0.5248027
vn 0.8678825 -0.0347301 0.4955543
vn 0.8645688 -0.369083 0.341026
vn 0.6437515 -0.7504423 0.1497347
vn 0.2509945 -0.9662386 -0.05818081
vn -0.2370271 -0.9440029 -0.2295146
vn -0.6823937 -0.6623204 -0.3093068
vn -0.9560894 -0.2857112 -0.06528706
vn -0.9899399 -0.04827363 -0.1329992
vn -0.9881056 -0.04229831 -0.1478452
vn -0.7835711 -0.4316415 -0.4468804
vn -0.897702 0.4404085 0.01309548
vn -0.5695797 0.6311688 0.5265025
vn -0.1045595 0.8060264 0.582571
vn 0.3917131 0.7287679 0.5616568
vn 0.7123053 0.3146248 0.6274015
vn 0.8570288 -0.1096485 0.5034669
vn 0.7716793 -0.5317575 0.3489197
vn 0.4987442 -0.8529184 0.1542231
vn 0.07101306 -0.9966113 -0.04151336
vn -0.418866 -0.8893089 -0.183525
vn -0.8849388 0.4625739 -0.05393263
vn -0.5499994 0.8337357 0.04884162
vn -0.08053698 0.9833552 0.1628702
vn 0.4189422 0.8651941 0.2755484
vn 0.8042923 0.48227 0.347174
vn 0.9422373 -0.03460933 0.3331536
vn 0.8253747 -0.5115997 0.238794
vn 0.513869 -0.8516313 0.1032603
vn 0.07020938 -0.9970246 -0.0318259
vn -0.4170984 -0.8995709 -0.1296201
vn -0.8087264 -0.5844768 -0.0659442
vn -0.9598653 -0.2673191 -0.08484884
vn -0.9598655 -0.2672869 -0.08494733
vn -0.6906738 -0.6942095 -0.2025904
vn -0.9673505 0.2527393 -0.01885897
vn -0.7189308 0.690331 0.08112787
vn -0.2826403 0.9382848 0.1993396
vn 0.2378428 0.9164672 0.3217435
vn 0.6801407 0.6068899 0.4112099
vn 0.8956721 0.134916 0.4237562
vn 0.8724199 -0.3337731 0.3570422
vn 0.6552039 -0.7173285 0.2369553
vn 0.2718729 -0.9575725 0.09560432
vn -0.2189356 -0.9753569 -0.02731869
vn -0.9703349 0.2107652 0.1184407
vn -0.7178889 0.6258007 0.304974
vn -0.2731806 0.8620505 0.4268976
vn 0.2393176 0.8592551 0.452115
vn 0.6849356 0.6263507 0.3722207
vn 0.952643 0.2254778 0.2040374
vn 0.9696382 -0.2443397 -0.009987337
vn 0.7232032 -0.6587469 -0.207436
vn 0.2793252 -0.9020054 -0.3291868
vn -0.2384206 -0.908195 -0.3440024
vn -0.6879791 -0.7097552 -0.1514347
vn -0.7697488 -0.6259409 0.1252396
vn -0.8148408 -0.5572394 -0.1597467
vn -0.4272949 -0.816801 -0.3876282
vn -0.9935989 -0.1097689 0.02668634
vn -0.9015117 0.364535 0.2332182
vn -0.5549728 0.7268257 0.4046352
vn -0.06185177 0.8686385 0.4915706
vn 0.4289505 0.768904 0.4741185
vn 0.8023306 0.4751608 0.3612311
vn 0.9827524 0.05402037 0.1768604
vn 0.9127467 -0.4068221 -0.03727448
vn 0.5860096 -0.780542 -0.2175938
vn 0.09231307 -0.9476119 -0.3057944
vn -0.9669446 -0.1543371 0.2029735
vn -0.9003853 0.3626662 0.240374
vn -0.5851391 0.7788466 0.2258544
vn -0.1110873 0.9791322 0.1701763
vn 0.3954842 0.9133364 0.09700125
vn 0.8023345 0.59635 0.02502393
vn 0.9929907 0.1123793 -0.03661158
vn 0.9134488 -0.3995862 -0.0770851
vn 0.5942257 -0.8001602 -0.08148296
vn 0.1264779 -0.9910783 -0.04204047
vn -0.3332714 -0.9258465 0.1781537
vn -0.5328352 -0.845261 0.04025811
vn -0.5114389 -0.851361 0.1166832
vn -0.06464338 -0.9897668 -0.1272126
vn -0.8547464 -0.474545 0.2102754
vn -0.9596763 0.0275155 0.2797574
vn -0.7987255 0.5191871 0.304109
vn -0.4139286 0.8661808 0.2799893
vn 0.09021084 0.9708544 0.2220449
vn 0.5712998 0.8067763 0.1507612
vn 0.898913 0.4310331 0.07852488
vn 0.9985417 -0.05209412 0.01417264
vn 0.8486499 -0.5283228 -0.02585171
vn 0.4778556 -0.8781442 -0.02273525
vn -0.8451337 -0.4768525 0.24158
vn -0.9149004 0.01572756 0.403373
vn -0.7276295 0.4889816 0.481095
vn -0.3466534 0.8170862 0.4606535
vn 0.1252219 0.9268786 0.3538583
vn 0.5761129 0.7957425 0.1867835
vn 0.8942888 0.4474724 -0.004048564
vn 0.9845852 -0.03715488 -0.1709136
vn 0.8102894 -0.5232123 -0.2639695
vn 0.4221986 -0.8703963 -0.2532957
vn -0.09215564 -0.9689844 -0.2292967
vn -0.6863602 -0.6149424 0.3882727
vn -0.85438 -0.5173658 0.0486588
vn -0.4764019 -0.8769385 -0.06340737
vn -0.9715416 -0.04763966 0.2320287
vn -0.8325704 0.4382654 0.3387477
vn -0.4764256 0.8103454 0.3411146
vn 0.002188462 0.970418 0.2414214
vn 0.4780878 0.8756907 0.06780976
vn 0.8248599 0.5492047 -0.1340918
vn 0.9470163 0.07762938 -0.3116629
vn 0.8099304 -0.4106272 -0.4188053
vn 0.4509532 -0.7835164 -0.4274849
vn -0.03279889 -0.9421127 -0.3336887
vn -0.8409172 -0.1569092 0.5179167
vn -0.7634659 0.3624678 0.5345437
vn -0.4545884 0.7875032 0.4161588
vn -0.01146267 0.9798299 0.1995047
vn 0.432574 0.9006078 -0.04225786
vn 0.7741128 0.5835959 -0.2452867
vn 0.9276978 0.0962577 -0.3607096
vn 0.8290272 -0.4336115 -0.3531218
vn 0.5028477 -0.8342077 -0.2263663
vn 0.06608678 -0.9974501 -0.02694656
vn -0.3275583 -0.9108706 0.2510389
vn -0.2153892 -0.910771 0.3522841
vn -0.3288417 -0.9294525 0.1672765
vn 0.08328591 -0.9849306 -0.1515768
vn -0.6817397 -0.6232573 0.3831209
vn -0.840932 -0.1528131 0.5191162
vn -0.7662091 0.3570141 0.5342888
vn -0.4783633 0.7705668 0.4211833
vn -0.05259113 0.975907 0.2117544
vn 0.3995941 0.9161388 -0.03185269
vn 0.7574384 0.6068624 -0.2408426
vn 0.9225909 0.1323532 -0.3623654
vn 0.8486548 -0.3782465 -0.3697494
vn 0.5559593 -0.78839 -0.2633451
vn -0.5445166 -0.618495 0.5665385
vn -0.7308632 -0.1686282 0.661365
vn -0.7198486 0.3432572 0.6033179
vn -0.4957258 0.7762589 0.3894588
vn -0.1199975 0.9897322 0.07765982
vn 0.2902617 0.9278817 -0.2340598
vn 0.6290114 0.6252906 -0.4619052
vn 0.8192609 0.1566917 -0.5515972
vn 0.8011517 -0.3666663 -0.4729818
vn 0.5644348 -0.7888874 -0.2430433
vn 0.1862858 -0.9805572 0.06168721
vn 0.5825252 -0.1574882 0.7974096
vn 0.8226463 0.305052 0.479788
vn 0.1324406 0.5534581 -0.8222797
vn -0.6349194 0.5862399 0.5031899
vn -0.4039685 0.009553168 -0.9147232
vn 0.9848968 -0.09160999 0.146922
vn -0.3830501 0.1168356 -0.9163091
vn 0.9065247 -0.4206673 -0.03538326
vn -0.1864761 0.3563272 -0.9155643
vn 0.2890544 0.61884 -0.7304005
vn 0.3048437 0.6251353 0.7185237
vn -0.7757023 0.5927673 0.216594
vn -0.8604527 0.4418487 0.2537537
vn 0.08366133 0.3165833 -0.9448683
vn -0.7504084 -0.624287 -0.2171478
vn 0.09088949 0.3426431 -0.9350588
usemtl mat20
f 3//1 2//1 1//1
f 6//2 5//2 4//2
f 5//3 8//3 7//3
f 10//4 9//4 7//4
f 9//5 12//5 11//5
f 15//6 14//6 13//6
f 18//7 17//7 16//7
f 17//8 19//8 16//8
f 22//9 21//9 20//9
f 23//10 3//10 1//10
f 17//11 18//11 12//11 3//11
f 26//12 25//12 20//12 24//12
f 27//13 16//13 20//13
f 29//14 28//14 16//14
f 28//15 30//15 13//15
f 33//16 32//16 31//16 13//16
f 34//17 7//17 31//17
f 36//18 35//18 7//18
f 38//19 37//19 4//19
f 37//20 1//20 2//20
f 39//21 24//21 1//21
f 40//22 30//22 28//22
f 41//23 34//23 30//23
f 41//24 42//24 34//24
f 42//25 43//25 36//25
f 43//26 44//26 35//26
f 44//27 45//27 37//27
f 45//28 46//28 39//28
f 14//30 18//30 48//30 13//30
f 16//31 48//31 18//31
f 28//32 48//32 16//32
f 13//33 48//33 28//33
f 27//34 29//34 16//34
f 46//35 27//35 20//35
f 39//36 46//36 24//36
f 22//37 20//37 16//37
f 1//38 24//38 23//38
f 37//39 39//39 1//39
f 45//40 39//40 37//40
f 21//41 24//41 20//41
f 4//43 2//43 6//43
f 37//44 2//44 4//44
f 44//45 37//45 35//45
f 7//46 4//46 5//46
f 35//47 4//47 7//47
f 43//48 35//48 36//48
f 34//49 36//49 7//49
f 42//50 36//50 34//50
f 13//51 30//51 34//51
f 40//52 41//52 30//52
f 15//53 13//53 31//53
f 8//54 5//54 6//54
f 10//55 7//55 8//55 12//55
f 12//56 8//56 6//56
f 3//57 6//57 2//57
f 12//58 6//58 3//58
f 23//59 19//59 17//59
f 3//60 23//60 17//60
f 22//61 19//61 23//61 21//61
f 16//62 19//62 22//62
f 21//63 23//63 24//63
f 15//64 18//64 14//64
f 18//65 11//65 12//65
f 31//66 11//66 15//66
f 15//67 11//67 18//67
f 10//68 12//68 9//68
f 9//69 31//69 7//69
f 11//70 31//70 9//70
f 25//80 46//80 20//80
f 26//81 24//81 46//81
f 25//82 26//82 46//82
f 32//83 50//83 34//83 31//83
f 50//84 33//84 13//84 34//84
f 52//85 51//85 32//85 33//85
f 51//86 53//86 50//86 32//86
f 53//87 52//87 33//87 50//87
f 53//88 51//88 52//88
f 38//89 35//89 37//89
f 54//90 4//90 35//90
f 4//91 54//91 38//91
f 38//92 54//92 35//92
f 58//93 57//93 56//93 55//93
f 57//94 60//94 59//94 56//94
f 60//95 62//95 61//95 59//95
f 62//96 64//96 63//96 61//96
f 64//97 66//97 65//97 63//97
f 66//98 68//98 67//98 65//98
f 68//99 70//99 69//99 67//99
f 70//100 72//100 71//100 69//100
f 72//101 74//101 73//101 71//101
f 74//102 76//102 75//102 73//102
f 76//103 78//103 77//103 75//103
f 78//104 58//104 55//104 77//104
f 79//105 75//105 77//105
f 78//106 76//106 74//106 72//106 70//106 68//106 66//106 64//106 62//106 60//106 57//106 58//106
f 80//107 73//107 75//107
f 81//108 71//108 73//108
f 82//109 69//109 71//109
f 83//110 67//110 69//110
f 84//111 65//111 67//111
f 85//112 63//112 65//112
f 86//113 61//113 63//113
f 87//114 59//114 61//114
f 88//115 56//115 59//115
f 89//116 55//116 56//116
f 89//117 77//117 55//117
f 91//118 79//118 90//118
f 77//119 90//119 79//119
f 89//120 90//120 77//120
f 75//121 79//121 80//121
f 73//122 80//122 81//122
f 71//123 81//123 82//123
f 69//124 82//124 83//124
f 67//125 83//125 84//125
f 65//126 84//126 85//126
f 63//127 85//127 86//127
f 61//128 86//128 87//128
f 59//129 87//129 88//129
f 56//130 88//130 89//130
f 92//131 80//131 79//131
f 93//132 81//132 80//132
f 94//133 82//133 81//133
f 95//134 83//134 82//134
f 96//135 84//135 83//135
f 97//136 85//136 84//136
f 98//137 86//137 85//137
f 99//138 87//138 86//138
f 100//139 88//139 87//139
f 101//140 89//140 88//140
f 101//141 90//141 89//141
f 103//142 91//142 102//142
f 90//143 102//143 91//143
f 101//144 102//144 90//144
f 79//145 91//145 92//145
f 80//146 92//146 93//146
f 81//147 93//147 94//147
f 82//148 94//148 95//148
f 83//149 95//149 96//149
f 84//150 96//150 97//150
f 85//151 97//151 98//151
f 86//152 98//152 99//152
f 87//153 99//153 100//153
f 88//154 100//154 101//154
f 104//155 92//155 91//155
f 105//156 93//156 92//156
f 106//157 94//157 93//157
f 107//158 95//158 94//158
f 108//159 96//159 95//159
f 109//160 97//160 96//160
f 110//161 98//161 97//161
f 111//162 99//162 98//162
f 112//163 100//163 99//163
f 113//164 101//164 100//164
f 113//165 102//165 101//165
f 115//166 103//166 114//166
f 102//167 114//167 103//167
f 113//168 114//168 102//168
f 91//169 103//169 104//169
f 92//170 104//170 105//170
f 93//171 105//171 106//171
f 94//172 106//172 107//172
f 95//173 107//173 108//173
f 96//174 108//174 109//174
f 97//175 109//175 110//175
f 98//176 110//176 111//176
f 99//177 111//177 112//177
f 100//178 112//178 113//178
f 116//179 104//179 103//179
f 117//180 105//180 104//180
f 118//181 106//181 105//181
f 119//182 107//182 106//182
f 120//183 108//183 107//183
f 121//184 109//184 108//184
f 122//185 110//185 109//185
f 123//186 111//186 110//186
f 124//187 112//187 111//187
f 125//188 113//188 112//188
f 125//189 114//189 113//189
f 125//190 124//190 123//190 122//190 121//190 120//190 119//190 118//190 117//190 116//190 115//190 126//190
f 114//191 126//191 115//191
f 125//192 126//192 114//192
f 103//193 115//193 116//193
f 104//194 116//194 117//194
f 105//195 117//195 118//195
f 106//196 118//196 119//196
f 107//197 119//197 120//197
f 108//198 120//198 121//198
f 109//199 121//199 122//199
f 110//200 122//200 123//200
f 111//201 123//201 124//201
f 112//202 124//202 125//202
f 130//203 129//203 128//203 127//203
f 129//204 132//204 131//204 128//204
f 132//205 134//205 133//205 131//205
f 134//206 136//206 135//206 133//206
f 136//207 138//207 137//207 135//207
f 138//208 140//208 139//208 137//208
f 140//209 142//209 141//209 139//209
f 142//210 144//210 143//210 141//210
f 144//211 146//211 145//211 143//211
f 146//212 148//212 147//212 145//212
f 148//213 150//213 149//213 147//213
f 150//214 130//214 127//214 149//214
f 151//215 147//215 149//215
f 150//216 148//216 146//216 144//216 142//216 140//216 138//216 136//216 134//216 132//216 129//216 130//216
f 152//217 145//217 147//217
f 153//218 143//218 145//218
f 154//219 141//219 143//219
f 155//220 139//220 141//220
f 156//221 137//221 139//221
f 157//222 135//222 137//222
f 158//223 133//223 135//223
f 159//224 131//224 133//224
f 160//225 128//225 131//225
f 161//226 127//226 128//226
f 161//227 149//227 127//227
f 163//228 151//228 162//228
f 149//229 162//229 151//229
f 161//230 162//230 149//230
f 147//231 151//231 152//231
f 145//232 152//232 153//232
f 143//233 153//233 154//233
f 141//234 154//234 155//234
f 139//235 155//235 156//235
f 137//236 156//236 157//236
f 135//237 157//237 158//237
f 133//238 158//238 159//238
f 131//239 159//239 160//239
f 128//240 160//240 161//240
f 164//241 152//241 151//241
f 165//242 153//242 152//242
f 166//243 154//243 153//243
f 167//244 155//244 154//244
f 168//245 156//245 155//245
f 169//246 157//246 156//246
f 170//247 158//247 157//247
f 171//248 159//248 158//248
f 172//249 160//249 159//249
f 173//250 161//250 160//250
f 173//251 162//251 161//251
f 175//252 163//252 174//252
f 162//253 174//253 163//253
f 173//254 174//254 162//254
f 151//255 163//255 164//255
f 152//256 164//256 165//256
f 153//257 165//257 166//257
f 154//258 166//258 167//258
f 155//259 167//259 168//259
f 156//260 168//260 169//260
f 157//261 169//261 170//261
f 158//262 170//262 171//262
f 159//263 171//263 172//263
f 160//264 172//264 173//264
f 176//265 164//265 163//265
f 177//266 165//266 164//266
f 178//267 166//267 165//267
f 179//268 167//268 166//268
f 180//269 168//269 167//269
f 181//270 169//270 168//270
f 182//271 170//271 169//271
f 183//272 171//272 170//272
f 184//273 172//273 171//273
f 185//274 173//274 172//274
f 185//275 174//275 173//275
f 187//276 175//276 186//276
f 174//277 186//277 175//277
f 185//278 186//278 174//278
f 163//279 175//279 176//279
f 164//280 176//280 177//280
f 165//281 177//281 178//281
f 166//282 178//282 179//282
f 167//283 179//283 180//283
f 168//284 180//284 181//284
f 169//285 181//285 182//285
f 170//286 182//286 183//286
f 171//287 183//287 184//287
f 172//288 184//288 185//288
f 188//289 176//289 175//289
f 189//290 177//290 176//290
f 190//291 178//291 177//291
f 191//292 179//292 178//292
f 192//293 180//293 179//293
f 193//294 181//294 180//294
f 194//295 182//295 181//295
f 195//296 183//296 182//296
f 196//297 184//297 183//297
f 197//298 185//298 184//298
f 197//299 186//299 185//299
f 197//300 196//300 195//300 194//300 193//300 192//300 191//300 190//300 189//300 188//300 187//300 198//300
f 186//301 198//301 187//301
f 197//302 198//302 186//302
f 175//303 187//303 188//303
f 176//304 188//304 189//304
f 177//305 189//305 190//305
f 178//306 190//306 191//306
f 179//307 191//307 192//307
f 180//308 192//308 193//308
f 181//309 193//309 194//309
f 182//310 194//310 195//310
f 183//311 195//311 196//311
f 184//312 196//312 197//312
f 202//313 201//313 200//313 199//313
f 201//314 204//314 203//314 200//314
f 204//315 206//315 205//315 203//315
f 206//316 208//316 207//316 205//316
f 208//317 210//317 209//317 207//317
f 210//318 212//318 211//318 209//318
f 212//319 214//319 213//319 211//319
f 214//320 216//320 215//320 213//320
f 216//321 218//321 217//321 215//321
f 218//322 220//322 219//322 217//322
f 220//323 222//323 221//323 219//323
f 222//324 202//324 199//324 221//324
f 223//325 219//325 221//325
f 222//326 220//326 218//326 216//326 214//326 212//326 210//326 208//326 206//326 204//326 201//326 202//326
f 224//327 217//327 219//327
f 225//328 215//328 217//328
f 226//329 213//329 215//329
f 227//330 211//330 213//330
f 228//331 209//331 211//331
f 229//332 207//332 209//332
f 230//333 205//333 207//333
f 231//334 203//334 205//334
f 232//335 200//335 203//335
f 233//336 199//336 200//336
f 233//337 221//337 199//337
f 235//338 223//338 234//338
f 221//339 234//339 223//339
f 233//340 234//340 221//340
f 219//341 223//341 224//341
f 217//342 224//342 225//342
f 215//343 225//343 226//343
f 213//344 226//344 227//344
f 211//345 227//345 228//345
f 209//346 228//346 229//346
f 207//347 229//347 230//347
f 205//348 230//348 231//348
f 203//349 231//349 232//349
f 200//350 232//350 233//350
f 236//351 224//351 223//351
f 237//352 225//352 224//352
f 238//353 226//353 225//353
f 239//354 227//354 226//354
f 240//355 228//355 227//355
f 241//356 229//356 228//356
f 242//357 230//357 229//357
f 243//358 231//358 230//358
f 244//359 232//359 231//359
f 245//360 233//360 232//360
f 245//361 234//361 233//361
f 247//362 235//362 246//362
f 234//363 246//363 235//363
f 245//364 246//364 234//364
f 223//365 235//365 236//365
f 224//366 236//366 237//366
f 225//367 237//367 238//367
f 226//368 238//368 239//368
f 227//369 239//369 240//369
f 228//370 240//370 241//370
f 229//371 241//371 242//371
f 230//372 242//372 243//372
f 231//373 243//373 244//373
f 232//374 244//374 245//374
f 248//375 236//375 235//375
f 249//376 237//376 236//376
f 250//377 238//377 237//377
f 251//378 239//378 238//378
f 252//379 240//379 239//379
f 253//380 241//380 240//380
f 254//381 242//381 241//381
f 255//382 243//382 242//382
f 256//383 244//383 243//383
f 257//384 245//384 244//384
f 257//385 246//385 245//385
f 259//386 247//386 258//386
f 246//387 258//387 247//387
f 257//388 258//388 246//388
f 235//389 247//389 248//389
f 236//390 248//390 249//390
f 237//391 249//391 250//391
f 238//392 250//392 251//392
f 239//393 251//393 252//393
f 240//394 252//394 253//394
f 241//395 253//395 254//395
f 242//396 254//396 255//396
f 243//397 255//397 256//397
f 244//398 256//398 257//398
f 260//399 248//399 247//399
f 261//400 249//400 248//400
f 262//401 250//401 249//401
f 263//402 251//402 250//402
f 264//403 252//403 251//403
f 265//404 253//404 252//404
f 266//405 254//405 253//405
f 267//406 255//406 254//406
f 268//407 256//407 255//407
f 269//408 257//408 256//408
f 269//409 258//409 257//409
f 269//410 268//410 267//410 266//410 265//410 264//410 263//410 262//410 261//410 260//410 259//410 270//410
f 258//411 270//411 259//411
f 269//412 270//412 258//412
f 247//413 259//413 260//413
f 248//414 260//414 261//414
f 249//415 261//415 262//415
f 250//416 262//416 263//416
f 251//417 263//417 264//417
f 252//418 264//418 265//418
f 253//419 265//419 266//419
f 254//420 266//420 267//420
f 255//421 267//421 268//421
f 256//422 268//422 269//422
f 274//423 273//423 272//423 271//423
f 273//424 276//424 275//424 272//424
f 276//425 278//425 277//425 275//425
f 278//426 280//426 279//426 277//426
f 280//427 282//427 281//427 279//427
f 282//428 284//428 283//428 281//428
f 284//429 286//429 285//429 283//429
f 286//430 288//430 287//430 285//430
f 288//431 290//431 289//431 287//431
f 290//432 292//432 291//432 289//432
f 292//433 294//433 293//433 291//433
f 294//434 274//434 271//434 293//434
f 295//435 291//435 293//435
f 294//436 292//436 290//436 288//436 286//436 284//436 282//436 280//436 278//436 276//436 273//436 274//436
f 296//437 289//437 291//437
f 297//438 287//438 289//438
f 298//439 285//439 287//439
f 299//440 283//440 285//440
f 300//441 281//441 283//441
f 301//442 279//442 281//442
f 302//443 277//443 279//443
f 303//444 275//444 277//444
f 304//445 272//445 275//445
f 305//446 271//446 272//446
f 305//447 293//447 271//447
f 307//448 295//448 306//448
f 293//449 306//449 295//449
f 305//450 306//450 293//450
f 291//451 295//451 296//451
f 289//452 296//452 297//452
f 287//453 297//453 298//453
f 285//454 298//454 299//454
f 283//455 299//455 300//455
f 281//456 300//456 301//456
f 279//457 301//457 302//457
f 277//458 302//458 303//458
f 275//459 303//459 304//459
f 272//460 304//460 305//460
f 308//461 296//461 295//461
f 309//462 297//462 296//462
f 310//463 298//463 297//463
f 311//464 299//464 298//464
f 312//465 300//465 299//465
f 313//466 301//466 300//466
f 314//467 302//467 301//467
f 315//468 303//468 302//468
f 316//469 304//469 303//469
f 317//470 305//470 304//470
f 317//471 306//471 305//471
f 319//472 307//472 318//472
f 306//473 318//473 307//473
f 317//474 318//474 306//474
f 295//475 307//475 308//475
f 296//476 308//476 309//476
f 297//477 309//477 310//477
f 298//478 310//478 311//478
f 299//479 311//479 312//479
f 300//480 312//480 313//480
f 301//481 313//481 314//481
f 302//482 314//482 315//482
f 303//483 315//483 316//483
f 304//484 316//484 317//484
f 320//485 308//485 307//485
f 321//486 309//486 308//486
f 322//487 310//487 309//487
f 323//488 311//488 310//488
f 324//489 312//489 311//489
f 325//490 313//490 312//490
f 326//491 314//491 313//491
f 327//492 315//492 314//492
f 328//493 316//493 315//493
f 329//494 317//494 316//494
f 329//495 318//495 317//495
f 331//496 319//496 330//496
f 318//497 330//497 319//497
f 329//498 330//498 318//498
f 307//499 319//499 320//499
f 308//500 320//500 321//500
f 309//501 321//501 322//501
f 310//502 322//502 323//502
f 311//503 323//503 324//503
f 312//504 324//504 325//504
f 313//505 325//505 326//505
f 314//506 326//506 327//506
f 315//507 327//507 328//507
f 316//508 328//508 329//508
f 332//509 320//509 319//509
f 333//510 321//510 320//510
f 334//511 322//511 321//511
f 335//512 323//512 322//512
f 336//513 324//513 323//513
f 337//514 325//514 324//514
f 338//515 326//515 325//515
f 339//516 327//516 326//516
f 340//517 328//517 327//517
f 341//518 329//518 328//518
f 341//519 330//519 329//519
f 343//520 331//520 342//520
f 330//521 342//521 331//521
f 341//522 342//522 330//522
f 319//523 331//523 332//523
f 320//524 332//524 333//524
f 321//525 333//525 334//525
f 322//526 334//526 335//526
f 323//527 335//527 336//527
f 324//528 336//528 337//528
f 325//529 337//529 338//529
f 326//530 338//530 339//530
f 327//531 339//531 340//531
f 328//532 340//532 341//532
f 344//533 332//533 331//533
f 345//534 333//534 332//534
f 346//535 334//535 333//535
f 347//536 335//536 334//536
f 348//537 336//537 335//537
f 349//538 337//538 336//538
f 350//539 338//539 337//539
f 351//540 339//540 338//540
f 352//541 340//541 339//541
f 353//542 341//542 340//542
f 353//543 342//543 341//543
f 355//544 343//544 354//544
f 342//545 354//545 343//545
f 353//546 354//546 342//546
f 331//547 343//547 344//547
f 332//548 344//548 345//548
f 333//549 345//549 346//549
f 334//550 346//550 347//550
f 335//551 347//551 348//551
f 336//552 348//552 349//552
f 337//553 349//553 350//553
f 338//554 350//554 351//554
f 339//555 351//555 352//555
f 340//556 352//556 353//556
f 356//557 344//557 343//557
f 357//558 345//558 344//558
f 358//559 346//559 345//559
f 359//560 347//560 346//560
f 360//561 348//561 347//561
f 361//562 349//562 348//562
f 362//563 350//563 349//563
f 363//564 351//564 350//564
f 364//565 352//565 351//565
f 365//566 353//566 352//566
f 365//567 354//567 353//567
f 368//568 367//568 355//568 366//568
f 354//569 366//569 355//569
f 365//570 366//570 354//570
f 343//571 355//571 356//571
f 344//572 356//572 357//572
f 345//573 357//573 358//573
f 346//574 358//574 359//574
f 347//575 359//575 360//575
f 348//576 360//576 361//576
f 349//577 361//577 362//577
f 350//578 362//578 363//578
f 351//579 363//579 364//579
f 352//580 364//580 365//580
f 367//581 369//581 356//581 355//581
f 369//582 370//582 357//582 356//582
f 370//583 371//583 358//583 357//583
f 371//584 372//584 359//584 358//584
f 372//585 373//585 360//585 359//585
f 373//586 374//586 361//586 360//586
f 374//587 375//587 362//587 361//587
f 375//588 376//588 363//588 362//588
f 376//589 377//589 364//589 363//589
f 377//590 378//590 365//590 364//590
f 378//591 368//591 366//591 365//591
f 378//592 377//592 376//592 375//592 374//592 373//592 372//592 371//592 370//592 369//592 367//592 368//592
f 382//593 381//593 380//593 379//593
f 381//594 384//594 383//594 380//594
f 384//595 386//595 385//595 383//595
f 386//596 388//596 387//596 385//596
f 388//597 389//597 387//597
f 391//598 390//598 389//598
f 393//599 392//599 390//599
f 395//600 394//600 392//600
f 398//601 397//601 396//601
f 400//602 399//602 397//602
f 402//603 401//603 399//603
f 382//604 379//604 401//604
f 403//605 399//605 401//605
f 388//606 386//606 384//606 381//606 382//606
f 404//607 397//607 399//607
f 405//608 396//608 397//608
f 406//609 392//609 396//609
f 407//610 390//610 392//610
f 408//611 389//611 390//611
f 409//612 387//612 389//612
f 410//613 385//613 387//613
f 411//614 383//614 385//614
f 412//615 380//615 383//615
f 413//616 379//616 380//616
f 413//617 401//617 379//617
f 415//618 403//618 414//618
f 401//619 414//619 403//619
f 413//620 414//620 401//620
f 399//621 403//621 404//621
f 397//622 404//622 405//622
f 396//623 405//623 406//623
f 392//624 406//624 407//624
f 390//625 407//625 408//625
f 389//626 408//626 409//626
f 387//627 409//627 410//627
f 385//628 410//628 411//628
f 383//629 411//629 412//629
f 380//630 412//630 413//630
f 416//631 404//631 403//631
f 417//632 405//632 404//632
f 418//633 406//633 405//633
f 419//634 407//634 406//634
f 420//635 408//635 407//635
f 421//636 409//636 408//636
f 422//637 410//637 409//637
f 423//638 411//638 410//638
f 424//639 412//639 411//639
f 425//640 413//640 412//640
f 425//641 414//641 413//641
f 427//642 415//642 426//642
f 414//643 426//643 415//643
f 425//644 426//644 414//644
f 403//645 415//645 416//645
f 404//646 416//646 417//646
f 405//647 417//647 418//647
f 406//648 418//648 419//648
f 407//649 419//649 420//649
f 408//650 420//650 421//650
f 409//651 421//651 422//651
f 410//652 422//652 423//652
f 411//653 423//653 424//653
f 412//654 424//654 425//654
f 428//655 416//655 415//655
f 429//656 417//656 416//656
f 430//657 418//657 417//657
f 431//658 419//658 418//658
f 432//659 420//659 419//659
f 433//660 421//660 420//660
f 434//661 422//661 421//661
f 435//662 423//662 422//662
f 436//663 424//663 423//663
f 437//664 425//664 424//664
f 437//665 426//665 425//665
f 439//666 427//666 438//666
f 426//667 438//667 427//667
f 437//668 438//668 426//668
f 415//669 427//669 428//669
f 416//670 428//670 429//670
f 417//671 429//671 430//671
f 418//672 430//672 431//672
f 419//673 431//673 432//673
f 420//674 432//674 433//674
f 421//675 433//675 434//675
f 422//676 434//676 435//676
f 423//677 435//677 436//677
f 424//678 436//678 437//678
f 440//679 428//679 427//679
f 441//680 429//680 428//680
f 442//681 430//681 429//681
f 443//682 431//682 430//682
f 444//683 432//683 431//683
f 445//684 433//684 432//684
f 446//685 434//685 433//685
f 447//686 435//686 434//686
f 448//687 436//687 435//687
f 449//688 437//688 436//688
f 449//689 438//689 437//689
f 451//690 439//690 450//690
f 438//691 450//691 439//691
f 449//692 450//692 438//692
f 427//693 439//693 440//693
f 428//694 440//694 441//694
f 429//695 441//695 442//695
f 430//696 442//696 443//696
f 431//697 443//697 444//697
f 432//698 444//698 445//698
f 433//699 445//699 446//699
f 434//700 446//700 447//700
f 435//701 447//701 448//701
f 436//702 448//702 449//702
f 452//703 440//703 439//703
f 453//704 441//704 440//704
f 454//705 442//705 441//705
f 455//706 443//706 442//706
f 456//707 444//707 443//707
f 457//708 445//708 444//708
f 458//709 446//709 445//709
f 459//710 447//710 446//710
f 460//711 448//711 447//711
f 461//712 449//712 448//712
f 461//713 450//713 449//713
f 463//714 451//714 462//714
f 450//715 462//715 451//715
f 461//716 462//716 450//716
f 439//717 451//717 452//717
f 440//718 452//718 453//718
f 441//719 453//719 454//719
f 442//720 454//720 455//720
f 443//721 455//721 456//721
f 444//722 456//722 457//722
f 445//723 457//723 458//723
f 446//724 458//724 459//724
f 447//725 459//725 460//725
f 448//726 460//726 461//726
f 464//727 452//727 451//727
f 465//728 453//728 452//728
f 466//729 454//729 453//729
f 467//730 455//730 454//730
f 468//731 456//731 455//731
f 469//732 457//732 456//732
f 470//733 458//733 457//733
f 471//734 459//734 458//734
f 472//735 460//735 459//735
f 473//736 461//736 460//736
f 473//737 462//737 461//737
f 476//738 475//738 463//738 474//738
f 462//739 474//739 463//739
f 473//740 474//740 462//740
f 451//741 463//741 464//741
f 452//742 464//742 465//742
f 453//743 465//743 466//743
f 454//744 466//744 467//744
f 455//745 467//745 468//745
f 456//746 468//746 469//746
f 457//747 469//747 470//747
f 458//748 470//748 471//748
f 459//749 471//749 472//749
f 460//750 472//750 473//750
f 475//751 477//751 464//751 463//751
f 477//752 478//752 465//752 464//752
f 478//753 479//753 466//753 465//753
f 479//754 480//754 467//754 466//754
f 480//755 481//755 468//755 467//755
f 481//756 482//756 469//756 468//756
f 482//757 483//757 470//757 469//757
f 483//758 484//758 471//758 470//758
f 484//759 485//759 472//759 471//759
f 485//760 486//760 473//760 472//760
f 486//761 476//761 474//761 473//761
f 486//762 485//762 484//762 483//762 482//762 481//762 480//762 479//762 478//762 477//762 475//762 476//762
f 393//763 395//763 392//763
f 394//764 395//764 393//764
f 396//765 394//765 398//765
f 398//766 394//766 393//766
f 391//767 393//767 390//767
f 398//768 393//768 391//768
f 388//769 391//769 389//769
f 398//770 391//770 388//770
f 400//771 398//771 388//771
f 394//772 396//772 392//772
f 397//773 398//773 400//773
f 399//774 400//774 402//774
f 402//775 400//775 388//775
f 401//776 402//776 382//776
f 382//777 402//777 388//777
usemtl mat19
f 47//29 40//29 28//29 27//29
f 46//42 45//42 44//42
f 28//71 29//71 27//71
f 27//72 46//72 44//72
f 27//73 44//73 43//73
f 27//74 43//74 42//74
f 42//75 41//75 49//75
f 47//76 41//76 40//76
f 47//77 27//77 49//77
f 27//78 42//78 49//78
f 47//79 49//79 41//79
